<?xml version="1.0" encoding="UTF-8"?>
<!-- Generator: Adobe Illustrator 22.0.1, SVG Export Plug-In . SVG Version: 6.00 Build 0)  -->
<svg version="1.1" id="Layer_1" xmlns="http://www.w3.org/2000/svg" xmlns:xlink="http://www.w3.org/1999/xlink" x="0px" y="0px" viewBox="0 0 344.5 86.8" style="enable-background:new 0 0 344.5 86.8;" xml:space="preserve">
<style type="text/css">
	.st0{fill:#060181;}
</style>
<g>
	<path class="st0" d="M42.6,5C21.2,5,3.9,22.4,3.9,43.7s17.3,38.7,38.7,38.7c18.2,0,33.5-12.6,37.6-29.5h-2.8   c-0.4,1.6-1,3.2-1.6,4.8c-1.8,4.3-4.4,8.1-7.7,11.4c-3.3,3.3-7.2,5.9-11.4,7.7c-4.4,1.9-9.1,2.8-14,2.8c-4.9,0-9.6-1-14-2.8   c-4.3-1.8-8.1-4.4-11.4-7.7c-3.3-3.3-5.9-7.2-7.7-11.4c-1.7-4-2.6-8.3-2.8-12.6l16.7,0c0.7,10.1,9.1,18,19.3,18   c10.2,0,18.6-7.9,19.3-18l19.4,0c0-0.4,0-0.9,0-1.4C81.3,22.4,64,5,42.6,5z M28.6,10.6c4.4-1.9,9.1-2.8,14-2.8c4.9,0,9.6,1,14,2.8   c0.6,0.2,1.1,0.5,1.6,0.7c0,0-0.1,0-0.1,0l0,0l-8.3,14.4c-2.2-0.9-4.7-1.4-7.2-1.4c-2.6,0-5,0.5-7.2,1.4L27,11.3l0,0c0,0,0,0-0.1,0   C27.5,11,28.1,10.8,28.6,10.6z M50.9,29.3c1.3,0.7,2.4,1.6,3.4,2.6c1.5,1.5,2.7,3.3,3.6,5.3c0.7,1.6,1.1,3.4,1.3,5.1H43.4   L50.9,29.3z M41.8,42.4H26c0.1-1.8,0.6-3.5,1.3-5.1c0.8-2,2-3.8,3.6-5.3c1-1,2.2-1.9,3.4-2.6L41.8,42.4z M6.6,42.4   c0.2-4.4,1.1-8.6,2.8-12.6c1.8-4.3,4.4-8.1,7.7-11.4c2.2-2.2,4.7-4.2,7.4-5.7L32.9,27c-5.4,3.1-9.2,8.8-9.6,15.4H6.6z M57.9,50.2   c-0.8,2-2,3.8-3.6,5.3c-1.5,1.5-3.3,2.7-5.3,3.6c-2,0.9-4.2,1.3-6.5,1.3s-4.4-0.4-6.5-1.3c-2-0.8-3.8-2-5.3-3.6   c-1.5-1.5-2.7-3.3-3.6-5.3c-0.7-1.6-1.1-3.4-1.3-5.1l33.2,0C59,46.9,58.6,48.6,57.9,50.2z M78.6,42.4H61.9   c-0.5-6.6-4.2-12.3-9.6-15.4l8.3-14.4c2.7,1.6,5.2,3.5,7.4,5.7c3.3,3.3,5.9,7.2,7.7,11.4C77.5,33.7,78.4,38,78.6,42.4z"/>
	<g>
		<path class="st0" d="M119.9,50.6l1.1,2.4c-3.2,1.8-6.2,2.7-9.3,2.7c-7.2,0-12-4.8-12-12.2c0-7.1,4.4-11.9,11.1-11.9    c6.5,0,10.3,4.4,10.3,11.5l-1.8,1.9h-16.5c0.6,5,4,7.9,9.3,7.9C114.4,52.8,116.9,52.2,119.9,50.6z M102.7,42.2h15.4    c0-5-2.8-7.9-7.5-7.9C106,34.3,103,37.2,102.7,42.2z"/>
		<path class="st0" d="M132.3,55l-8-22.7h3.2l6.8,19.9h1.4l6.8-19.9h3.2l-8,22.7H132.3z"/>
		<path class="st0" d="M148.7,43.6c0-7.2,4.7-12,11.5-12c6.9,0,11.5,4.8,11.5,12c0,7.2-4.7,12-11.5,12    C153.4,55.6,148.7,50.8,148.7,43.6z M168.8,43.6c0-5.8-3.2-9.3-8.5-9.3c-5.3,0-8.5,3.4-8.5,9.3c0,5.8,3.2,9.3,8.5,9.3    C165.6,52.8,168.8,49.4,168.8,43.6z"/>
		<path class="st0" d="M178.5,55V18.8l2.9-0.3V55H178.5z"/>
		<path class="st0" d="M189.4,46.5V32.2h2.9v13.4c0,5,1.6,7.2,5.2,7.2c3.7,0,7.1-2.4,9.2-6.4V32.2h2.9V55h-2.8v-4.1h-1.4    c-1.1,2.9-4.4,4.8-8.2,4.8C192.1,55.6,189.4,52.5,189.4,46.5z"/>
		<path class="st0" d="M216.3,43.6c0-7.2,4.7-12,11.6-12c2.6,0,5.1,0.6,7.4,1.7l-1.1,2.6c-2-0.9-4-1.4-6.1-1.4    c-5.3,0-8.8,3.6-8.8,9.2c0,5.6,3.4,9.2,8.8,9.2c2.1,0,4.1-0.5,6.1-1.4l1.1,2.6c-2.4,1.1-4.8,1.7-7.4,1.7    C220.9,55.6,216.3,50.8,216.3,43.6z"/>
		<path class="st0" d="M240.4,22.6c0-1.4,1-2.4,2.4-2.4s2.4,1,2.4,2.4c0,1.4-1,2.4-2.4,2.4S240.4,24,240.4,22.6z M241.4,55V32.2h2.9    V55H241.4z"/>
		<path class="st0" d="M251,43.6c0-7.2,4.7-12,11.5-12c6.9,0,11.5,4.8,11.5,12c0,7.2-4.7,12-11.5,12C255.7,55.6,251,50.8,251,43.6z     M271,43.6c0-5.8-3.2-9.3-8.5-9.3c-5.3,0-8.5,3.4-8.5,9.3c0,5.8,3.2,9.3,8.5,9.3C267.8,52.8,271,49.4,271,43.6z"/>
		<path class="st0" d="M280.8,55V32.2h2.9v4h1.4c1.1-2.8,4.3-4.7,8.4-4.7c5.2,0,7.9,3.1,7.9,9.2V55h-2.9V41.6c0-5-1.6-7.2-5.4-7.2    c-4,0-7.3,2.4-9.4,6.4V55H280.8z"/>
		<path class="st0" d="M307.7,43.6c0-7.2,4.3-12,10.7-12c3.4,0,6.4,1.5,7.6,4.7h1.4v-4h2.9V55h-2.9v-4h-1.4    c-1.2,3.2-4.1,4.7-7.7,4.7C312,55.6,307.7,50.8,307.7,43.6z M327.6,43.6c0-5.3-3.9-9.3-8.9-9.3c-4.8,0-8,3.7-8,9.3    c0,5.5,3.2,9.3,8,9.3C323.7,52.8,327.6,48.9,327.6,43.6z"/>
		<path class="st0" d="M339.1,55V18.8l2.9-0.3V55H339.1z"/>
	</g>
</g>
</svg>